<mxfile host="Electron" agent="Mozilla/5.0 (Windows NT 10.0; Win64; x64) AppleWebKit/537.36 (KHTML, like Gecko) draw.io/26.0.16 Chrome/132.0.6834.196 Electron/34.2.0 Safari/537.36" version="26.0.16">
  <diagram name="第 1 页" id="myxBicJwIYdCS8k_YzC-">
    <mxGraphModel dx="934" dy="665" grid="1" gridSize="10" guides="1" tooltips="1" connect="1" arrows="1" fold="1" page="1" pageScale="1" pageWidth="2339" pageHeight="3300" math="0" shadow="0">
      <root>
        <mxCell id="0" />
        <mxCell id="1" parent="0" />
        <mxCell id="2TrYTWXH77MjPTTfizYe-10" value="" style="rounded=0;whiteSpace=wrap;html=1;" parent="1" vertex="1">
          <mxGeometry x="290" y="710" width="800" height="440" as="geometry" />
        </mxCell>
        <mxCell id="2TrYTWXH77MjPTTfizYe-11" value="&lt;b&gt;&lt;font style=&quot;font-size: 18px; color: rgb(0, 0, 0);&quot;&gt;RadarDenoise&lt;/font&gt;&lt;/b&gt;" style="rounded=1;whiteSpace=wrap;html=1;fillColor=#b1ddf0;strokeColor=#10739e;" parent="1" vertex="1">
          <mxGeometry x="550" y="940" width="160" height="70" as="geometry" />
        </mxCell>
        <mxCell id="2TrYTWXH77MjPTTfizYe-12" value="&lt;b&gt;&lt;font style=&quot;font-size: 18px; color: rgb(0, 0, 0);&quot;&gt;Original Radar Image&lt;/font&gt;&lt;/b&gt;" style="rounded=0;whiteSpace=wrap;html=1;fillColor=#1ba1e2;strokeColor=#006EAF;fontColor=#ffffff;" parent="1" vertex="1">
          <mxGeometry x="20" y="920" width="150" height="90" as="geometry" />
        </mxCell>
        <mxCell id="2TrYTWXH77MjPTTfizYe-13" value="&lt;font style=&quot;font-size: 18px; color: rgb(0, 0, 0);&quot;&gt;&lt;b&gt;Immerse Simulation&lt;/b&gt;&lt;/font&gt;" style="rounded=1;whiteSpace=wrap;html=1;fillColor=#fad9d5;strokeColor=#ae4132;" parent="1" vertex="1">
          <mxGeometry x="810" y="940" width="250" height="80" as="geometry" />
        </mxCell>
        <mxCell id="2TrYTWXH77MjPTTfizYe-14" value="&lt;b&gt;&lt;font style=&quot;font-size: 18px; color: rgb(0, 0, 0);&quot;&gt;Mesocyclone Analysis&lt;/font&gt;&lt;/b&gt;" style="rounded=1;whiteSpace=wrap;html=1;fillColor=#fad7ac;strokeColor=#b46504;" parent="1" vertex="1">
          <mxGeometry x="540" y="1040" width="215" height="70" as="geometry" />
        </mxCell>
        <mxCell id="2TrYTWXH77MjPTTfizYe-15" value="&lt;b&gt;&lt;font style=&quot;font-size: 18px; color: rgb(0, 0, 0);&quot;&gt;Detection Report&lt;/font&gt;&lt;/b&gt;" style="rounded=0;whiteSpace=wrap;html=1;fillColor=#bac8d3;strokeColor=#23445d;" parent="1" vertex="1">
          <mxGeometry x="10" y="1040" width="195" height="70" as="geometry" />
        </mxCell>
        <mxCell id="2TrYTWXH77MjPTTfizYe-16" value="" style="shape=flexArrow;endArrow=classic;html=1;rounded=0;fillColor=#e1d5e7;strokeColor=#9673a6;" parent="1" edge="1">
          <mxGeometry width="50" height="50" relative="1" as="geometry">
            <mxPoint x="430" y="974.23" as="sourcePoint" />
            <mxPoint x="490.5" y="974.23" as="targetPoint" />
          </mxGeometry>
        </mxCell>
        <mxCell id="2TrYTWXH77MjPTTfizYe-17" value="" style="shape=flexArrow;endArrow=classic;html=1;rounded=0;fillColor=#dae8fc;gradientColor=#7ea6e0;strokeColor=#6c8ebf;" parent="1" edge="1">
          <mxGeometry width="50" height="50" relative="1" as="geometry">
            <mxPoint x="730" y="974.5" as="sourcePoint" />
            <mxPoint x="790" y="974.5" as="targetPoint" />
          </mxGeometry>
        </mxCell>
        <mxCell id="2TrYTWXH77MjPTTfizYe-18" value="" style="shape=flexArrow;endArrow=classic;html=1;rounded=0;fillColor=#f8cecc;gradientColor=#ea6b66;strokeColor=#b85450;" parent="1" edge="1">
          <mxGeometry width="50" height="50" relative="1" as="geometry">
            <mxPoint x="950" y="1040" as="sourcePoint" />
            <mxPoint x="830" y="1080" as="targetPoint" />
            <Array as="points">
              <mxPoint x="950" y="1080" />
            </Array>
          </mxGeometry>
        </mxCell>
        <mxCell id="2TrYTWXH77MjPTTfizYe-19" value="" style="shape=flexArrow;endArrow=classic;html=1;rounded=0;fillColor=#ffcd28;gradientColor=#ffa500;strokeColor=#d79b00;" parent="1" edge="1">
          <mxGeometry width="50" height="50" relative="1" as="geometry">
            <mxPoint x="500" y="1074.5" as="sourcePoint" />
            <mxPoint x="430" y="1074.5" as="targetPoint" />
          </mxGeometry>
        </mxCell>
        <mxCell id="2TrYTWXH77MjPTTfizYe-20" value="" style="shape=flexArrow;endArrow=classic;html=1;rounded=0;fillColor=#1ba1e2;strokeColor=#006EAF;" parent="1" edge="1">
          <mxGeometry width="50" height="50" relative="1" as="geometry">
            <mxPoint x="205" y="964.29" as="sourcePoint" />
            <mxPoint x="272.5" y="964.29" as="targetPoint" />
          </mxGeometry>
        </mxCell>
        <mxCell id="2TrYTWXH77MjPTTfizYe-21" value="&lt;font style=&quot;font-size: 18px; color: rgb(0, 0, 0);&quot;&gt;&lt;b style=&quot;&quot;&gt;DataIO&lt;/b&gt;&lt;/font&gt;" style="rounded=1;whiteSpace=wrap;html=1;fillColor=#e1d5e7;strokeColor=#9673a6;" parent="1" vertex="1">
          <mxGeometry x="320" y="930" width="80" height="190" as="geometry" />
        </mxCell>
        <mxCell id="2TrYTWXH77MjPTTfizYe-22" value="" style="shape=flexArrow;endArrow=classic;html=1;rounded=0;fillColor=#e1d5e7;strokeColor=#9673a6;" parent="1" edge="1">
          <mxGeometry width="50" height="50" relative="1" as="geometry">
            <mxPoint x="280" y="1074.29" as="sourcePoint" />
            <mxPoint x="220" y="1074.29" as="targetPoint" />
          </mxGeometry>
        </mxCell>
        <mxCell id="2TrYTWXH77MjPTTfizYe-23" value="Gray Image" style="text;html=1;align=center;verticalAlign=middle;whiteSpace=wrap;rounded=0;" parent="1" vertex="1">
          <mxGeometry x="410" y="920" width="100" height="30" as="geometry" />
        </mxCell>
        <mxCell id="2TrYTWXH77MjPTTfizYe-24" value="Gray Image" style="text;html=1;align=center;verticalAlign=middle;resizable=0;points=[];autosize=1;strokeColor=none;fillColor=none;" parent="1" vertex="1">
          <mxGeometry x="720" y="920" width="90" height="30" as="geometry" />
        </mxCell>
        <mxCell id="2TrYTWXH77MjPTTfizYe-25" value="Gray Image, peak regions" style="text;html=1;align=center;verticalAlign=middle;resizable=0;points=[];autosize=1;strokeColor=none;fillColor=none;" parent="1" vertex="1">
          <mxGeometry x="780" y="1030" width="160" height="30" as="geometry" />
        </mxCell>
        <mxCell id="2TrYTWXH77MjPTTfizYe-26" value="Mesocyclone Data" style="text;html=1;align=center;verticalAlign=middle;resizable=0;points=[];autosize=1;strokeColor=none;fillColor=none;" parent="1" vertex="1">
          <mxGeometry x="410" y="1098" width="120" height="30" as="geometry" />
        </mxCell>
        <mxCell id="2TrYTWXH77MjPTTfizYe-27" value="" style="shape=flexArrow;endArrow=classic;html=1;rounded=0;fillColor=#fad9d5;strokeColor=#ae4132;" parent="1" edge="1">
          <mxGeometry width="50" height="50" relative="1" as="geometry">
            <mxPoint x="359.29" y="1170" as="sourcePoint" />
            <mxPoint x="359.29" y="1240" as="targetPoint" />
          </mxGeometry>
        </mxCell>
        <mxCell id="2TrYTWXH77MjPTTfizYe-28" value="&lt;b&gt;&lt;font style=&quot;font-size: 18px; color: rgb(0, 0, 0);&quot;&gt;Marked Image&lt;/font&gt;&lt;/b&gt;" style="rounded=0;whiteSpace=wrap;html=1;fillColor=#bac8d3;strokeColor=#23445d;" parent="1" vertex="1">
          <mxGeometry x="260" y="1260" width="190" height="60" as="geometry" />
        </mxCell>
        <mxCell id="2TrYTWXH77MjPTTfizYe-29" value="&lt;b&gt;&lt;font style=&quot;font-size: 18px; color: rgb(0, 0, 0);&quot;&gt;Radar Image Constants&lt;/font&gt;&lt;/b&gt;" style="rounded=0;whiteSpace=wrap;html=1;fillColor=#d0cee2;strokeColor=#56517e;" parent="1" vertex="1">
          <mxGeometry x="540" y="750" width="340" height="100" as="geometry" />
        </mxCell>
        <mxCell id="2TrYTWXH77MjPTTfizYe-30" value="" style="endArrow=classic;startArrow=classic;html=1;rounded=0;" parent="1" edge="1">
          <mxGeometry width="50" height="50" relative="1" as="geometry">
            <mxPoint x="360" y="910" as="sourcePoint" />
            <mxPoint x="530" y="810" as="targetPoint" />
          </mxGeometry>
        </mxCell>
        <mxCell id="2TrYTWXH77MjPTTfizYe-31" value="&lt;b&gt;&lt;font style=&quot;font-size: 18px;&quot;&gt;Update &amp;amp; Validate&lt;/font&gt;&lt;/b&gt;" style="text;html=1;align=center;verticalAlign=middle;resizable=0;points=[];autosize=1;strokeColor=none;fillColor=none;" parent="1" vertex="1">
          <mxGeometry x="310" y="823" width="180" height="40" as="geometry" />
        </mxCell>
        <mxCell id="2TrYTWXH77MjPTTfizYe-32" value="" style="endArrow=classic;html=1;rounded=0;" parent="1" edge="1">
          <mxGeometry width="50" height="50" relative="1" as="geometry">
            <mxPoint x="680" y="860" as="sourcePoint" />
            <mxPoint x="630" y="930" as="targetPoint" />
          </mxGeometry>
        </mxCell>
        <mxCell id="2TrYTWXH77MjPTTfizYe-33" value="" style="endArrow=classic;html=1;rounded=0;" parent="1" edge="1">
          <mxGeometry width="50" height="50" relative="1" as="geometry">
            <mxPoint x="790" y="860" as="sourcePoint" />
            <mxPoint x="930" y="930" as="targetPoint" />
          </mxGeometry>
        </mxCell>
        <mxCell id="2TrYTWXH77MjPTTfizYe-34" value="" style="endArrow=classic;html=1;rounded=0;entryX=0.635;entryY=-0.059;entryDx=0;entryDy=0;entryPerimeter=0;" parent="1" target="2TrYTWXH77MjPTTfizYe-14" edge="1">
          <mxGeometry width="50" height="50" relative="1" as="geometry">
            <mxPoint x="730" y="860" as="sourcePoint" />
            <mxPoint x="610" y="1110" as="targetPoint" />
          </mxGeometry>
        </mxCell>
        <mxCell id="mY-y-TRF3l3w2jD6xqVD-1" value="" style="rounded=0;whiteSpace=wrap;html=1;fillColor=#d0cee2;strokeColor=#56517e;" vertex="1" parent="1">
          <mxGeometry x="270" y="1420" width="775" height="430" as="geometry" />
        </mxCell>
        <mxCell id="mY-y-TRF3l3w2jD6xqVD-2" value="&lt;font style=&quot;font-size: 18px; color: rgb(0, 0, 0);&quot;&gt;&lt;b&gt;DataIO&lt;/b&gt;&lt;/font&gt;" style="text;html=1;align=center;verticalAlign=middle;whiteSpace=wrap;rounded=0;" vertex="1" parent="1">
          <mxGeometry x="550" y="1430" width="60" height="30" as="geometry" />
        </mxCell>
        <mxCell id="mY-y-TRF3l3w2jD6xqVD-3" value="&lt;b&gt;&lt;font style=&quot;font-size: 18px; color: rgb(0, 0, 0);&quot;&gt;consts&lt;/font&gt;&lt;/b&gt;" style="rounded=0;whiteSpace=wrap;html=1;fillColor=#dae8fc;strokeColor=#6c8ebf;gradientColor=#7ea6e0;" vertex="1" parent="1">
          <mxGeometry x="490" y="1480" width="230" height="70" as="geometry" />
        </mxCell>
        <mxCell id="mY-y-TRF3l3w2jD6xqVD-4" value="&lt;font style=&quot;font-size: 18px; color: rgb(0, 0, 0);&quot;&gt;&lt;b&gt;radar_config&lt;/b&gt;&lt;/font&gt;" style="rounded=0;whiteSpace=wrap;html=1;fillColor=#fff2cc;strokeColor=#d6b656;gradientColor=#ffd966;" vertex="1" parent="1">
          <mxGeometry x="420" y="1620" width="170" height="70" as="geometry" />
        </mxCell>
        <mxCell id="mY-y-TRF3l3w2jD6xqVD-5" value="&lt;b&gt;&lt;font style=&quot;font-size: 18px; color: rgb(0, 0, 0);&quot;&gt;data_transformer&lt;/font&gt;&lt;/b&gt;" style="rounded=0;whiteSpace=wrap;html=1;fillColor=#e6d0de;strokeColor=#996185;gradientColor=#d5739d;" vertex="1" parent="1">
          <mxGeometry x="845" y="1440" width="180" height="90" as="geometry" />
        </mxCell>
        <mxCell id="mY-y-TRF3l3w2jD6xqVD-6" value="&lt;b&gt;&lt;font style=&quot;font-size: 18px; color: rgb(0, 0, 0);&quot;&gt;preprocessor&lt;/font&gt;&lt;/b&gt;" style="rounded=0;whiteSpace=wrap;html=1;fillColor=#f8cecc;strokeColor=#b85450;gradientColor=#ea6b66;" vertex="1" parent="1">
          <mxGeometry x="700" y="1620" width="180" height="80" as="geometry" />
        </mxCell>
        <mxCell id="mY-y-TRF3l3w2jD6xqVD-7" value="&lt;b&gt;&lt;font style=&quot;font-size: 18px; color: rgb(0, 0, 0);&quot;&gt;radar_config yaml&lt;/font&gt;&lt;/b&gt;" style="rounded=0;whiteSpace=wrap;html=1;fillColor=#bac8d3;strokeColor=#23445d;" vertex="1" parent="1">
          <mxGeometry x="400" y="1740" width="200" height="90" as="geometry" />
        </mxCell>
      </root>
    </mxGraphModel>
  </diagram>
</mxfile>
